<svg id="OBJECT" viewBox="0 0 32 32" xmlns="http://www.w3.org/2000/svg"><path d="m16.04 18.5c-.55 0-1-.45-1-1s.45-1 1-1h3c1.42-.95 3.13-1.5 4.96-1.5 1.05 0 2.06.19 3 .53v-5.53h-26v16c0 .55.45 1 1 1h13.53c-.33-.94-.53-1.95-.53-3 0-2.07.71-3.98 1.89-5.5zm5.02-6.71h.94c.55 0 1 .45 1 1s-.45 1-1 1h-.94c-.55 0-1-.45-1-1s.45-1 1-1zm-5.02 0h.94c.55 0 1 .45 1 1s-.45 1-1 1h-.94c-.55 0-1-.45-1-1s.45-1 1-1zm-9.1 11.41h-.94c-.55 0-1-.45-1-1s.45-1 1-1h.94c.55 0 1 .45 1 1s-.45 1-1 1zm0-4.71h-.94c-.55 0-1-.45-1-1s.45-1 1-1h.94c.55 0 1 .45 1 1s-.45 1-1 1zm0-4.71h-.94c-.55 0-1-.45-1-1s.45-1 1-1h.94c.55 0 1 .45 1 1s-.45 1-1 1zm5.02 9.41h-.94c-.55 0-1-.45-1-1s.45-1 1-1h.94c.55 0 1 .45 1 1s-.45 1-1 1zm0-4.71h-.94c-.55 0-1-.45-1-1s.45-1 1-1h.94c.55 0 1 .45 1 1s-.45 1-1 1zm0-4.71h-.94c-.55 0-1-.45-1-1s.45-1 1-1h.94c.55 0 1 .45 1 1s-.45 1-1 1z"/><path d="m27 5c0-.55-.45-1-1-1h-.5v-2c0-.55-.45-1-1-1s-1 .45-1 1v2h-3v-2c0-.55-.45-1-1-1s-1 .45-1 1v2h-3v-2c0-.55-.45-1-1-1s-1 .45-1 1v2h-3v-2c0-.55-.45-1-1-1s-1 .45-1 1v2h-3v-2c0-.55-.45-1-1-1s-1 .45-1 1v2h-1.5c-.55 0-1 .45-1 1v3h26z"/><path d="m24 17c-3.86 0-7 3.14-7 7s3.14 7 7 7 7-3.14 7-7-3.14-7-7-7zm2.71 9.71c-.2.2-.45.29-.71.29s-.51-.1-.71-.29l-2-2c-.19-.19-.29-.44-.29-.71v-3c0-.55.45-1 1-1s1 .45 1 1v2.59l1.71 1.71c.39.39.39 1.02 0 1.41z"/></svg>