<svg id="SOLID" viewBox="0 0 64 64" xmlns="http://www.w3.org/2000/svg"><g fill="rgb(0,0,0)"><path d="m51.43 60.5c-.3 0-.6-.09-.85-.26l-9.72-6.7h-13.45c-2.48 0-4.5-2.02-4.5-4.5v-17.08c0-.83.67-1.5 1.5-1.5s1.5.67 1.5 1.5v17.08c0 .83.67 1.5 1.5 1.5h13.92c.3 0 .6.09.85.26l7.75 5.34v-4.1c0-.83.67-1.5 1.5-1.5h4.57c.83 0 1.5-.67 1.5-1.5v-20.95c0-.83-.67-1.5-1.5-1.5h-10.4c-.83 0-1.5-.67-1.5-1.5s.67-1.5 1.5-1.5h10.4c2.48 0 4.5 2.02 4.5 4.5v20.95c0 2.48-2.02 4.5-4.5 4.5h-3.07v5.46c0 .56-.31 1.07-.8 1.33-.22.12-.46.17-.7.17z"/><g><path d="m46.37 47.12c-.58 0-1.14-.34-1.38-.91l-3.28-7.68-3.28 7.68c-.33.76-1.21 1.12-1.97.79s-1.12-1.21-.79-1.97l4.66-10.92c.24-.55.78-.91 1.38-.91s1.14.36 1.38.91l4.66 10.92c.33.76-.03 1.64-.79 1.97-.19.08-.39.12-.59.12z"/><path d="m45.16 44.29h-6.9c-.83 0-1.5-.67-1.5-1.5s.67-1.5 1.5-1.5h6.9c.83 0 1.5.67 1.5 1.5s-.67 1.5-1.5 1.5z"/></g><path d="m26.88 18.48c0 .72-.17 1.39-.47 2l-.68-.68c-.58-.59-1.53-.59-2.12 0-.58.58-.58 1.53 0 2.12l.68.68c-.6.29-1.28.46-1.99.46-2.53 0-4.59-2.06-4.59-4.58s2.06-4.58 4.59-4.58 4.58 2.05 4.58 4.58z"/><path d="m36.59 3.5h-28.59c-2.48 0-4.5 2.02-4.5 4.5v20.96c0 2.48 2.02 4.5 4.5 4.5h3.07v5.46c0 .55.31 1.06.81 1.32.22.12.46.18.69.18.3 0 .6-.09.86-.27l9.7-6.69h13.46c2.48 0 4.5-2.02 4.5-4.5v-20.96c0-2.48-2.02-4.5-4.5-4.5zm-6.1 23.17c-.29.3-.68.44-1.06.44s-.77-.14-1.06-.44l-1.89-1.88c-1.2.81-2.64 1.27-4.18 1.27-4.18 0-7.59-3.4-7.59-7.58s3.41-7.58 7.59-7.58 7.58 3.4 7.58 7.58c0 1.55-.47 2.99-1.27 4.19l1.88 1.88c.59.59.59 1.54 0 2.12z"/></g></svg>